<svg width="289" height="73" viewBox="0 0 289 73" fill="none" xmlns="http://www.w3.org/2000/svg">
<path d="M28.0771 45H10.8096V15.0176H28.0771V20.2266H17.167V26.8096H27.3184V32.0186H17.167V39.75H28.0771V45ZM41.1201 45.4102C38.4268 45.4102 36.3076 44.3643 34.7627 42.2725C33.2314 40.1807 32.4658 37.2822 32.4658 33.5771C32.4658 29.8174 33.2451 26.8916 34.8037 24.7998C36.376 22.6943 38.5361 21.6416 41.2842 21.6416C44.1689 21.6416 46.3701 22.7627 47.8877 25.0049H48.0928C47.7783 23.2959 47.6211 21.7715 47.6211 20.4316V13.0898H53.8965V45H49.0977L47.8877 42.0264H47.6211C46.1992 44.2822 44.0322 45.4102 41.1201 45.4102ZM43.3145 40.4268C44.9141 40.4268 46.083 39.9619 46.8213 39.0322C47.5732 38.1025 47.9834 36.5234 48.0518 34.2949V33.6182C48.0518 31.1572 47.6689 29.3936 46.9033 28.3271C46.1514 27.2607 44.9209 26.7275 43.2119 26.7275C41.8174 26.7275 40.7305 27.3223 39.9512 28.5117C39.1855 29.6875 38.8027 31.4033 38.8027 33.6592C38.8027 35.915 39.1924 37.6104 39.9717 38.7451C40.751 39.8662 41.8652 40.4268 43.3145 40.4268ZM60.1719 16.1455C60.1719 14.1084 61.3066 13.0898 63.5762 13.0898C65.8457 13.0898 66.9805 14.1084 66.9805 16.1455C66.9805 17.1162 66.6934 17.875 66.1191 18.4219C65.5586 18.9551 64.7109 19.2217 63.5762 19.2217C61.3066 19.2217 60.1719 18.1963 60.1719 16.1455ZM66.6934 45H60.4385V22.0723H66.6934V45ZM82.9355 40.4268C84.0293 40.4268 85.3418 40.1875 86.873 39.709V44.3643C85.3145 45.0615 83.4004 45.4102 81.1309 45.4102C78.6289 45.4102 76.8037 44.7812 75.6553 43.5234C74.5205 42.252 73.9531 40.3516 73.9531 37.8223V26.7686H70.959V24.123L74.4043 22.0312L76.209 17.1914H80.208V22.0723H86.627V26.7686H80.208V37.8223C80.208 38.7109 80.4541 39.3672 80.9463 39.791C81.4521 40.2148 82.1152 40.4268 82.9355 40.4268ZM96.5117 33.4951C96.5117 35.7646 96.8809 37.4805 97.6191 38.6426C98.3711 39.8047 99.5879 40.3857 101.27 40.3857C102.938 40.3857 104.134 39.8115 104.858 38.6631C105.597 37.501 105.966 35.7783 105.966 33.4951C105.966 31.2256 105.597 29.5234 104.858 28.3887C104.12 27.2539 102.91 26.6865 101.229 26.6865C99.5605 26.6865 98.3574 27.2539 97.6191 28.3887C96.8809 29.5098 96.5117 31.2119 96.5117 33.4951ZM112.364 33.4951C112.364 37.2275 111.38 40.1465 109.411 42.252C107.442 44.3574 104.701 45.4102 101.188 45.4102C98.9863 45.4102 97.0449 44.9316 95.3633 43.9746C93.6816 43.0039 92.3896 41.6162 91.4873 39.8115C90.585 38.0068 90.1338 35.9014 90.1338 33.4951C90.1338 29.749 91.1113 26.8369 93.0664 24.7588C95.0215 22.6807 97.7695 21.6416 101.311 21.6416C103.512 21.6416 105.453 22.1201 107.135 23.0771C108.816 24.0342 110.108 25.4082 111.011 27.1992C111.913 28.9902 112.364 31.0889 112.364 33.4951ZM130.329 21.6416C131.177 21.6416 131.881 21.7031 132.441 21.8262L131.97 27.6914C131.464 27.5547 130.849 27.4863 130.124 27.4863C128.128 27.4863 126.569 27.999 125.448 29.0244C124.341 30.0498 123.787 31.4854 123.787 33.3311V45H117.532V22.0723H122.27L123.192 25.9277H123.5C124.211 24.6426 125.168 23.6104 126.371 22.8311C127.588 22.0381 128.907 21.6416 130.329 21.6416ZM141.649 15.0176L141.937 15.4688C141.253 18.1621 140.05 21.4365 138.327 25.292H133.836C134.779 21.2451 135.463 17.8203 135.887 15.0176H141.649ZM161.706 38.1914C161.706 40.543 160.886 42.334 159.245 43.5645C157.618 44.7949 155.178 45.4102 151.924 45.4102C150.256 45.4102 148.834 45.2939 147.658 45.0615C146.482 44.8428 145.382 44.5146 144.356 44.0771V38.9092C145.519 39.4561 146.824 39.9141 148.273 40.2832C149.736 40.6523 151.021 40.8369 152.129 40.8369C154.398 40.8369 155.533 40.1807 155.533 38.8682C155.533 38.376 155.383 37.9795 155.082 37.6787C154.781 37.3643 154.262 37.0156 153.523 36.6328C152.785 36.2363 151.801 35.7783 150.57 35.2588C148.807 34.5205 147.508 33.8369 146.674 33.208C145.854 32.5791 145.252 31.8613 144.869 31.0547C144.5 30.2344 144.315 29.2295 144.315 28.04C144.315 26.0029 145.102 24.4307 146.674 23.3232C148.26 22.2021 150.502 21.6416 153.4 21.6416C156.162 21.6416 158.849 22.2432 161.46 23.4463L159.573 27.958C158.425 27.4658 157.352 27.0625 156.354 26.748C155.355 26.4336 154.337 26.2764 153.298 26.2764C151.452 26.2764 150.529 26.7754 150.529 27.7734C150.529 28.334 150.823 28.8193 151.411 29.2295C152.013 29.6396 153.318 30.248 155.328 31.0547C157.119 31.7793 158.432 32.4561 159.266 33.085C160.1 33.7139 160.715 34.4385 161.111 35.2588C161.508 36.0791 161.706 37.0566 161.706 38.1914ZM184.347 29.127H186.438C188.394 29.127 189.856 28.7441 190.827 27.9785C191.798 27.1992 192.283 26.0713 192.283 24.5947C192.283 23.1045 191.873 22.0039 191.053 21.293C190.246 20.582 188.975 20.2266 187.238 20.2266H184.347V29.127ZM198.702 24.3691C198.702 27.5957 197.69 30.0635 195.667 31.7725C193.657 33.4814 190.793 34.3359 187.074 34.3359H184.347V45H177.989V15.0176H187.566C191.203 15.0176 193.965 15.8037 195.852 17.376C197.752 18.9346 198.702 21.2656 198.702 24.3691ZM203.604 16.1455C203.604 14.1084 204.738 13.0898 207.008 13.0898C209.277 13.0898 210.412 14.1084 210.412 16.1455C210.412 17.1162 210.125 17.875 209.551 18.4219C208.99 18.9551 208.143 19.2217 207.008 19.2217C204.738 19.2217 203.604 18.1963 203.604 16.1455ZM210.125 45H203.87V22.0723H210.125V45ZM226.019 45.4102C218.882 45.4102 215.313 41.4932 215.313 33.6592C215.313 29.7627 216.284 26.7891 218.226 24.7383C220.167 22.6738 222.949 21.6416 226.572 21.6416C229.225 21.6416 231.604 22.1611 233.709 23.2002L231.863 28.04C230.879 27.6436 229.963 27.3223 229.115 27.0762C228.268 26.8164 227.42 26.6865 226.572 26.6865C223.318 26.6865 221.691 28.9971 221.691 33.6182C221.691 38.1025 223.318 40.3447 226.572 40.3447C227.775 40.3447 228.89 40.1875 229.915 39.873C230.94 39.5449 231.966 39.0391 232.991 38.3555V43.708C231.979 44.3506 230.954 44.7949 229.915 45.041C228.89 45.2871 227.591 45.4102 226.019 45.4102ZM244.332 32.5312L247.06 29.0449L253.479 22.0723H260.533L251.428 32.0186L261.087 45H253.868L247.265 35.71L244.578 37.8633V45H238.323V13.0898H244.578V27.3223L244.25 32.5312H244.332ZM280.364 38.1914C280.364 40.543 279.544 42.334 277.903 43.5645C276.276 44.7949 273.836 45.4102 270.582 45.4102C268.914 45.4102 267.492 45.2939 266.316 45.0615C265.141 44.8428 264.04 44.5146 263.015 44.0771V38.9092C264.177 39.4561 265.482 39.9141 266.932 40.2832C268.395 40.6523 269.68 40.8369 270.787 40.8369C273.057 40.8369 274.191 40.1807 274.191 38.8682C274.191 38.376 274.041 37.9795 273.74 37.6787C273.439 37.3643 272.92 37.0156 272.182 36.6328C271.443 36.2363 270.459 35.7783 269.229 35.2588C267.465 34.5205 266.166 33.8369 265.332 33.208C264.512 32.5791 263.91 31.8613 263.527 31.0547C263.158 30.2344 262.974 29.2295 262.974 28.04C262.974 26.0029 263.76 24.4307 265.332 23.3232C266.918 22.2021 269.16 21.6416 272.059 21.6416C274.82 21.6416 277.507 22.2432 280.118 23.4463L278.231 27.958C277.083 27.4658 276.01 27.0625 275.012 26.748C274.014 26.4336 272.995 26.2764 271.956 26.2764C270.11 26.2764 269.188 26.7754 269.188 27.7734C269.188 28.334 269.481 28.8193 270.069 29.2295C270.671 29.6396 271.977 30.248 273.986 31.0547C275.777 31.7793 277.09 32.4561 277.924 33.085C278.758 33.7139 279.373 34.4385 279.77 35.2588C280.166 36.0791 280.364 37.0566 280.364 38.1914Z" fill="#1C1C1C"/>
<line x1="50" y1="70.5" x2="240" y2="70.5" stroke="#1C1C1C" stroke-width="5"/>
</svg>
